<svg viewBox="0 0 980 820" width="100%" xmlns="http://www.w3.org/2000/svg"><rect x="0" y="0" width="980" height="820" fill="#ffffff"/><line x1="360" y1="90" x2="602" y2="30" stroke="#c0504d" stroke-opacity="0.35" stroke-width="1"/><line x1="360" y1="90" x2="602" y2="60" stroke="#c0504d" stroke-opacity="0.35" stroke-width="1"/><line x1="360" y1="90" x2="602" y2="90" stroke="#c0504d" stroke-opacity="0.35" stroke-width="1"/><line x1="360" y1="90" x2="602" y2="120" stroke="#c0504d" stroke-opacity="0.35" stroke-width="1"/><line x1="360" y1="90" x2="602" y2="150" stroke="#c0504d" stroke-opacity="0.35" stroke-width="1"/><line x1="120" y1="387" x2="358" y2="90" stroke="#c0504d" stroke-opacity="0.5" stroke-width="1.5"/><line x1="360" y1="252" x2="602" y2="192" stroke="#4f6d7a" stroke-opacity="0.35" stroke-width="1"/><line x1="360" y1="252" x2="602" y2="222" stroke="#4f6d7a" stroke-opacity="0.35" stroke-width="1"/><line x1="360" y1="252" x2="602" y2="252" stroke="#4f6d7a" stroke-opacity="0.35" stroke-width="1"/><line x1="360" y1="252" x2="602" y2="282" stroke="#4f6d7a" stroke-opacity="0.35" stroke-width="1"/><line x1="360" y1="252" x2="602" y2="312" stroke="#4f6d7a" stroke-opacity="0.35" stroke-width="1"/><line x1="120" y1="387" x2="358" y2="252" stroke="#4f6d7a" stroke-opacity="0.5" stroke-width="1.5"/><line x1="360" y1="384" x2="602" y2="354" stroke="#5b8a72" stroke-opacity="0.35" stroke-width="1"/><line x1="360" y1="384" x2="602" y2="384" stroke="#5b8a72" stroke-opacity="0.35" stroke-width="1"/><line x1="360" y1="384" x2="602" y2="414" stroke="#5b8a72" stroke-opacity="0.35" stroke-width="1"/><line x1="120" y1="387" x2="358" y2="384" stroke="#5b8a72" stroke-opacity="0.5" stroke-width="1.5"/><line x1="360" y1="516" x2="602" y2="456" stroke="#c77f2a" stroke-opacity="0.35" stroke-width="1"/><line x1="360" y1="516" x2="602" y2="486" stroke="#c77f2a" stroke-opacity="0.35" stroke-width="1"/><line x1="360" y1="516" x2="602" y2="516" stroke="#c77f2a" stroke-opacity="0.35" stroke-width="1"/><line x1="360" y1="516" x2="602" y2="546" stroke="#c77f2a" stroke-opacity="0.35" stroke-width="1"/><line x1="360" y1="516" x2="602" y2="576" stroke="#c77f2a" stroke-opacity="0.35" stroke-width="1"/><line x1="120" y1="387" x2="358" y2="516" stroke="#c77f2a" stroke-opacity="0.5" stroke-width="1.5"/><line x1="360" y1="693" x2="602" y2="618" stroke="#7a5c9e" stroke-opacity="0.35" stroke-width="1"/><line x1="360" y1="693" x2="602" y2="648" stroke="#7a5c9e" stroke-opacity="0.35" stroke-width="1"/><line x1="360" y1="693" x2="602" y2="678" stroke="#7a5c9e" stroke-opacity="0.35" stroke-width="1"/><line x1="360" y1="693" x2="602" y2="708" stroke="#7a5c9e" stroke-opacity="0.35" stroke-width="1"/><line x1="360" y1="693" x2="602" y2="738" stroke="#7a5c9e" stroke-opacity="0.35" stroke-width="1"/><line x1="360" y1="693" x2="602" y2="768" stroke="#7a5c9e" stroke-opacity="0.35" stroke-width="1"/><line x1="120" y1="387" x2="358" y2="693" stroke="#7a5c9e" stroke-opacity="0.5" stroke-width="1.5"/><circle cx="90" cy="387" r="34" fill="#2b2b2b"/><text x="90" y="385" text-anchor="middle" font-size="14" fill="#fff">知识库</text><text x="90" y="401" text-anchor="middle" font-size="10" fill="#bbb">1800条</text><g class="nd" data-t="投资系统与风险" style="cursor:pointer"><circle cx="610" cy="30" r="13" fill="#c0504d" fill-opacity="0.85"/><text x="624" y="34" font-size="13" fill="#333">投资系统与风险 <tspan fill="#999" font-size="11">60</tspan></text></g><g class="nd" data-t="股市与基金" style="cursor:pointer"><circle cx="610" cy="60" r="15" fill="#c0504d" fill-opacity="0.85"/><text x="624" y="64" font-size="13" fill="#333">股市与基金 <tspan fill="#999" font-size="11">104</tspan></text></g><g class="nd" data-t="黄金与贵金属" style="cursor:pointer"><circle cx="610" cy="90" r="10" fill="#c0504d" fill-opacity="0.85"/><text x="624" y="94" font-size="13" fill="#333">黄金与贵金属 <tspan fill="#999" font-size="11">21</tspan></text></g><g class="nd" data-t="美元与汇率" style="cursor:pointer"><circle cx="610" cy="120" r="10" fill="#c0504d" fill-opacity="0.85"/><text x="624" y="124" font-size="13" fill="#333">美元与汇率 <tspan fill="#999" font-size="11">21</tspan></text></g><g class="nd" data-t="房产与买房决策" style="cursor:pointer"><circle cx="610" cy="150" r="12" fill="#c0504d" fill-opacity="0.85"/><text x="624" y="154" font-size="13" fill="#333">房产与买房决策 <tspan fill="#999" font-size="11">47</tspan></text></g><g class="cat" data-c="投资与市场" style="cursor:pointer"><rect x="358" y="75" width="150" height="30" rx="15" fill="#c0504d"/><text x="433" y="94" text-anchor="middle" font-size="13" fill="#fff">投资与市场</text></g><g class="nd" data-t="宏观经济与周期" style="cursor:pointer"><circle cx="610" cy="192" r="14" fill="#4f6d7a" fill-opacity="0.85"/><text x="624" y="196" font-size="13" fill="#333">宏观经济与周期 <tspan fill="#999" font-size="11">73</tspan></text></g><g class="nd" data-t="政策解读" style="cursor:pointer"><circle cx="610" cy="222" r="15" fill="#4f6d7a" fill-opacity="0.85"/><text x="624" y="226" font-size="13" fill="#333">政策解读 <tspan fill="#999" font-size="11">131</tspan></text></g><g class="nd" data-t="中美关系与博弈" style="cursor:pointer"><circle cx="610" cy="252" r="12" fill="#4f6d7a" fill-opacity="0.85"/><text x="624" y="256" font-size="13" fill="#333">中美关系与博弈 <tspan fill="#999" font-size="11">50</tspan></text></g><g class="nd" data-t="国际局势与地缘" style="cursor:pointer"><circle cx="610" cy="282" r="11" fill="#4f6d7a" fill-opacity="0.85"/><text x="624" y="286" font-size="13" fill="#333">国际局势与地缘 <tspan fill="#999" font-size="11">37</tspan></text></g><g class="nd" data-t="产业与消费观察" style="cursor:pointer"><circle cx="610" cy="312" r="13" fill="#4f6d7a" fill-opacity="0.85"/><text x="624" y="316" font-size="13" fill="#333">产业与消费观察 <tspan fill="#999" font-size="11">69</tspan></text></g><g class="cat" data-c="宏观与政策" style="cursor:pointer"><rect x="358" y="237" width="150" height="30" rx="15" fill="#4f6d7a"/><text x="433" y="256" text-anchor="middle" font-size="13" fill="#fff">宏观与政策</text></g><g class="nd" data-t="科技与AI产业" style="cursor:pointer"><circle cx="610" cy="354" r="15" fill="#5b8a72" fill-opacity="0.85"/><text x="624" y="358" font-size="13" fill="#333">科技与AI产业 <tspan fill="#999" font-size="11">136</tspan></text></g><g class="nd" data-t="AI工具与工作流" style="cursor:pointer"><circle cx="610" cy="384" r="15" fill="#5b8a72" fill-opacity="0.85"/><text x="624" y="388" font-size="13" fill="#333">AI工具与工作流 <tspan fill="#999" font-size="11">102</tspan></text></g><g class="nd" data-t="数据与信息差" style="cursor:pointer"><circle cx="610" cy="414" r="11" fill="#5b8a72" fill-opacity="0.85"/><text x="624" y="418" font-size="13" fill="#333">数据与信息差 <tspan fill="#999" font-size="11">33</tspan></text></g><g class="cat" data-c="科技与AI" style="cursor:pointer"><rect x="358" y="369" width="150" height="30" rx="15" fill="#5b8a72"/><text x="433" y="388" text-anchor="middle" font-size="13" fill="#fff">科技与AI</text></g><g class="nd" data-t="副业与变现" style="cursor:pointer"><circle cx="610" cy="456" r="14" fill="#c77f2a" fill-opacity="0.85"/><text x="624" y="460" font-size="13" fill="#333">副业与变现 <tspan fill="#999" font-size="11">88</tspan></text></g><g class="nd" data-t="一人公司与个人品牌" style="cursor:pointer"><circle cx="610" cy="486" r="10" fill="#c77f2a" fill-opacity="0.85"/><text x="624" y="490" font-size="13" fill="#333">一人公司与个人品牌 <tspan fill="#999" font-size="11">22</tspan></text></g><g class="nd" data-t="创业与商机" style="cursor:pointer"><circle cx="610" cy="516" r="15" fill="#c77f2a" fill-opacity="0.85"/><text x="624" y="520" font-size="13" fill="#333">创业与商机 <tspan fill="#999" font-size="11">100</tspan></text></g><g class="nd" data-t="自媒体与内容创作" style="cursor:pointer"><circle cx="610" cy="546" r="15" fill="#c77f2a" fill-opacity="0.85"/><text x="624" y="550" font-size="13" fill="#333">自媒体与内容创作 <tspan fill="#999" font-size="11">161</tspan></text></g><g class="nd" data-t="社群与协作" style="cursor:pointer"><circle cx="610" cy="576" r="13" fill="#c77f2a" fill-opacity="0.85"/><text x="624" y="580" font-size="13" fill="#333">社群与协作 <tspan fill="#999" font-size="11">57</tspan></text></g><g class="cat" data-c="创业与变现" style="cursor:pointer"><rect x="358" y="501" width="150" height="30" rx="15" fill="#c77f2a"/><text x="433" y="520" text-anchor="middle" font-size="13" fill="#fff">创业与变现</text></g><g class="nd" data-t="学习方法与知识管理" style="cursor:pointer"><circle cx="610" cy="618" r="15" fill="#7a5c9e" fill-opacity="0.85"/><text x="624" y="622" font-size="13" fill="#333">学习方法与知识管理 <tspan fill="#999" font-size="11">141</tspan></text></g><g class="nd" data-t="个人护城河与判断力" style="cursor:pointer"><circle cx="610" cy="648" r="11" fill="#7a5c9e" fill-opacity="0.85"/><text x="624" y="652" font-size="13" fill="#333">个人护城河与判断力 <tspan fill="#999" font-size="11">39</tspan></text></g><g class="nd" data-t="成长心态与习惯" style="cursor:pointer"><circle cx="610" cy="678" r="15" fill="#7a5c9e" fill-opacity="0.85"/><text x="624" y="682" font-size="13" fill="#333">成长心态与习惯 <tspan fill="#999" font-size="11">208</tspan></text></g><g class="nd" data-t="职业规划与跳槽" style="cursor:pointer"><circle cx="610" cy="708" r="11" fill="#7a5c9e" fill-opacity="0.85"/><text x="624" y="712" font-size="13" fill="#333">职业规划与跳槽 <tspan fill="#999" font-size="11">34</tspan></text></g><g class="nd" data-t="财富自由与人生观" style="cursor:pointer"><circle cx="610" cy="738" r="11" fill="#7a5c9e" fill-opacity="0.85"/><text x="624" y="742" font-size="13" fill="#333">财富自由与人生观 <tspan fill="#999" font-size="11">31</tspan></text></g><g class="nd" data-t="生活与健康" style="cursor:pointer"><circle cx="610" cy="768" r="11" fill="#7a5c9e" fill-opacity="0.85"/><text x="624" y="772" font-size="13" fill="#333">生活与健康 <tspan fill="#999" font-size="11">35</tspan></text></g><g class="cat" data-c="成长与认知" style="cursor:pointer"><rect x="358" y="678" width="150" height="30" rx="15" fill="#7a5c9e"/><text x="433" y="697" text-anchor="middle" font-size="13" fill="#fff">成长与认知</text></g></svg>